<mxfile host="app.diagrams.net" modified="2024-04-30T10:22:44.610Z" agent="Mozilla/5.0 (Windows NT 10.0; Win64; x64) AppleWebKit/537.36 (KHTML, like Gecko) Chrome/124.0.0.0 Safari/537.36" etag="HmrEXQ1D9l7EGmBbnb4s" version="22.1.17" type="device">
  <diagram name="Page-1" id="m4MMDB0sz12wDx_qH_W9">
    <mxGraphModel dx="2954" dy="1106" grid="1" gridSize="10" guides="1" tooltips="1" connect="1" arrows="1" fold="1" page="1" pageScale="1" pageWidth="827" pageHeight="1169" math="0" shadow="0">
      <root>
        <mxCell id="0" />
        <mxCell id="1" parent="0" />
        <mxCell id="I0CpTEiCyQbWEyfTQno0-1" value="S3 bucket" style="sketch=0;outlineConnect=0;fontColor=#232F3E;gradientColor=none;fillColor=#7AA116;strokeColor=none;dashed=0;verticalLabelPosition=bottom;verticalAlign=top;align=center;html=1;fontSize=12;fontStyle=0;aspect=fixed;pointerEvents=1;shape=mxgraph.aws4.bucket;" vertex="1" parent="1">
          <mxGeometry x="570" y="262" width="75" height="78" as="geometry" />
        </mxCell>
        <mxCell id="I0CpTEiCyQbWEyfTQno0-9" style="edgeStyle=orthogonalEdgeStyle;rounded=0;orthogonalLoop=1;jettySize=auto;html=1;" edge="1" parent="1" source="I0CpTEiCyQbWEyfTQno0-2" target="I0CpTEiCyQbWEyfTQno0-1">
          <mxGeometry relative="1" as="geometry" />
        </mxCell>
        <mxCell id="I0CpTEiCyQbWEyfTQno0-13" value="Store data in S3" style="edgeLabel;html=1;align=center;verticalAlign=middle;resizable=0;points=[];" vertex="1" connectable="0" parent="I0CpTEiCyQbWEyfTQno0-9">
          <mxGeometry x="-0.2716" relative="1" as="geometry">
            <mxPoint as="offset" />
          </mxGeometry>
        </mxCell>
        <mxCell id="I0CpTEiCyQbWEyfTQno0-2" value="IoT Core" style="sketch=0;points=[[0,0,0],[0.25,0,0],[0.5,0,0],[0.75,0,0],[1,0,0],[0,1,0],[0.25,1,0],[0.5,1,0],[0.75,1,0],[1,1,0],[0,0.25,0],[0,0.5,0],[0,0.75,0],[1,0.25,0],[1,0.5,0],[1,0.75,0]];outlineConnect=0;fontColor=#232F3E;fillColor=#7AA116;strokeColor=#ffffff;dashed=0;verticalLabelPosition=bottom;verticalAlign=top;align=center;html=1;fontSize=12;fontStyle=0;aspect=fixed;shape=mxgraph.aws4.resourceIcon;resIcon=mxgraph.aws4.iot_core;" vertex="1" parent="1">
          <mxGeometry x="330" y="262" width="78" height="78" as="geometry" />
        </mxCell>
        <mxCell id="I0CpTEiCyQbWEyfTQno0-3" value="Sensor A" style="outlineConnect=0;dashed=0;verticalLabelPosition=bottom;verticalAlign=top;align=center;html=1;shape=mxgraph.aws3.sensor;fillColor=#5294CF;gradientColor=none;" vertex="1" parent="1">
          <mxGeometry x="90" y="120" width="76.5" height="90" as="geometry" />
        </mxCell>
        <mxCell id="I0CpTEiCyQbWEyfTQno0-4" value="Sensor B" style="outlineConnect=0;dashed=0;verticalLabelPosition=bottom;verticalAlign=top;align=center;html=1;shape=mxgraph.aws3.sensor;fillColor=#5294CF;gradientColor=none;" vertex="1" parent="1">
          <mxGeometry x="90" y="256" width="76.5" height="90" as="geometry" />
        </mxCell>
        <mxCell id="I0CpTEiCyQbWEyfTQno0-5" value="Sensor C" style="outlineConnect=0;dashed=0;verticalLabelPosition=bottom;verticalAlign=top;align=center;html=1;shape=mxgraph.aws3.sensor;fillColor=#5294CF;gradientColor=none;" vertex="1" parent="1">
          <mxGeometry x="90" y="390" width="76.5" height="90" as="geometry" />
        </mxCell>
        <mxCell id="I0CpTEiCyQbWEyfTQno0-6" style="edgeStyle=orthogonalEdgeStyle;rounded=0;orthogonalLoop=1;jettySize=auto;html=1;entryX=0;entryY=0.25;entryDx=0;entryDy=0;entryPerimeter=0;" edge="1" parent="1" source="I0CpTEiCyQbWEyfTQno0-3" target="I0CpTEiCyQbWEyfTQno0-2">
          <mxGeometry relative="1" as="geometry" />
        </mxCell>
        <mxCell id="I0CpTEiCyQbWEyfTQno0-7" style="edgeStyle=orthogonalEdgeStyle;rounded=0;orthogonalLoop=1;jettySize=auto;html=1;entryX=0;entryY=0.5;entryDx=0;entryDy=0;entryPerimeter=0;" edge="1" parent="1" source="I0CpTEiCyQbWEyfTQno0-4" target="I0CpTEiCyQbWEyfTQno0-2">
          <mxGeometry relative="1" as="geometry" />
        </mxCell>
        <mxCell id="I0CpTEiCyQbWEyfTQno0-8" style="edgeStyle=orthogonalEdgeStyle;rounded=0;orthogonalLoop=1;jettySize=auto;html=1;entryX=0;entryY=0.75;entryDx=0;entryDy=0;entryPerimeter=0;" edge="1" parent="1" source="I0CpTEiCyQbWEyfTQno0-5" target="I0CpTEiCyQbWEyfTQno0-2">
          <mxGeometry relative="1" as="geometry" />
        </mxCell>
        <mxCell id="I0CpTEiCyQbWEyfTQno0-11" style="edgeStyle=orthogonalEdgeStyle;rounded=0;orthogonalLoop=1;jettySize=auto;html=1;" edge="1" parent="1" source="I0CpTEiCyQbWEyfTQno0-10">
          <mxGeometry relative="1" as="geometry">
            <mxPoint x="607.5" y="370" as="targetPoint" />
          </mxGeometry>
        </mxCell>
        <mxCell id="I0CpTEiCyQbWEyfTQno0-12" value="Query sensor data" style="edgeLabel;html=1;align=center;verticalAlign=middle;resizable=0;points=[];" vertex="1" connectable="0" parent="I0CpTEiCyQbWEyfTQno0-11">
          <mxGeometry x="-0.0964" y="-2" relative="1" as="geometry">
            <mxPoint as="offset" />
          </mxGeometry>
        </mxCell>
        <mxCell id="I0CpTEiCyQbWEyfTQno0-10" value="Athena" style="sketch=0;points=[[0,0,0],[0.25,0,0],[0.5,0,0],[0.75,0,0],[1,0,0],[0,1,0],[0.25,1,0],[0.5,1,0],[0.75,1,0],[1,1,0],[0,0.25,0],[0,0.5,0],[0,0.75,0],[1,0.25,0],[1,0.5,0],[1,0.75,0]];outlineConnect=0;fontColor=#232F3E;fillColor=#8C4FFF;strokeColor=#ffffff;dashed=0;verticalLabelPosition=bottom;verticalAlign=top;align=center;html=1;fontSize=12;fontStyle=0;aspect=fixed;shape=mxgraph.aws4.resourceIcon;resIcon=mxgraph.aws4.athena;" vertex="1" parent="1">
          <mxGeometry x="568.5" y="520" width="78" height="78" as="geometry" />
        </mxCell>
      </root>
    </mxGraphModel>
  </diagram>
</mxfile>
